<?xml version="1.0" encoding="iso-8859-1"?>
<!-- Generator: Adobe Illustrator 19.0.0, SVG Export Plug-In . SVG Version: 6.00 Build 0)  -->
<svg version="1.1" id="Capa_1" xmlns="http://www.w3.org/2000/svg" xmlns:xlink="http://www.w3.org/1999/xlink" x="0px" y="0px"
	 viewBox="0 0 201.387 201.387" style="enable-background:new 0 0 201.387 201.387;" xml:space="preserve">
<path style="fill:#26BBEC;" d="M197.973,124.587H3.413V31.918c0-7.26,5.885-13.145,13.145-13.145h168.271
	c7.26,0,13.145,5.885,13.145,13.145V124.587z"/>
<path d="M197.973,128H3.413C1.529,128,0,126.471,0,124.587V31.92c0-9.132,7.429-16.56,16.558-16.56h168.271
	c9.131,0,16.558,7.429,16.558,16.56v92.667C201.387,126.471,199.857,128,197.973,128z M6.827,121.173H194.56V31.92
	c0-5.367-4.366-9.733-9.731-9.733H16.558c-5.367,0-9.731,4.367-9.731,9.733V121.173z"/>
<rect x="20.48" y="87.04" style="fill:#EE5281;" width="37.547" height="13.653"/>
<path d="M58.027,104.107H20.48c-1.884,0-3.413-1.529-3.413-3.413V87.04c0-1.884,1.529-3.413,3.413-3.413h37.547
	c1.884,0,3.413,1.529,3.413,3.413v13.653C61.44,102.577,59.911,104.107,58.027,104.107z M23.893,97.28h30.72v-6.827h-30.72V97.28z"
	/>
<rect x="23.893" y="100.693" style="fill:#F97DA3;" width="30.72" height="23.893"/>
<path d="M58.027,128H20.48V97.28h37.547V128z M27.307,121.173H51.2v-17.067H27.307V121.173z"/>
<rect x="116.053" y="73.387" style="fill:#9BFC1D;" width="37.547" height="13.653"/>
<path d="M153.6,90.453h-37.547c-1.884,0-3.413-1.529-3.413-3.413V73.387c0-1.884,1.529-3.413,3.413-3.413H153.6
	c1.884,0,3.413,1.529,3.413,3.413V87.04C157.013,88.924,155.484,90.453,153.6,90.453z M119.467,83.627h30.72V76.8h-30.72V83.627z"/>
<rect x="119.467" y="87.04" style="fill:#83D816;" width="30.72" height="37.547"/>
<path d="M150.187,128h-30.72c-1.884,0-3.413-1.529-3.413-3.413V87.04c0-1.884,1.529-3.413,3.413-3.413h30.72
	c1.884,0,3.413,1.529,3.413,3.413v37.547C153.6,126.471,152.071,128,150.187,128z M122.88,121.173h23.893v-30.72H122.88V121.173z"/>
<path style="fill:#DDDDDD;" d="M184.829,155.307H16.558c-7.26,0-13.145-5.885-13.145-13.145v-17.575h194.56v17.575
	C197.973,149.422,192.089,155.307,184.829,155.307z"/>
<path d="M184.829,158.72H16.558C7.427,158.72,0,151.291,0,142.162v-17.575c0-1.884,1.529-3.413,3.413-3.413h194.56
	c1.884,0,3.413,1.529,3.413,3.413v17.575C201.387,151.291,193.958,158.72,184.829,158.72z M6.827,128v14.162
	c0,5.367,4.366,9.731,9.731,9.731h168.271c5.367,0,9.731-4.366,9.731-9.731V128H6.827z"/>
<path d="M100.693,148.48c-4.705,0-8.533-3.828-8.533-8.533s3.828-8.533,8.533-8.533s8.533,3.828,8.533,8.533
	S105.399,148.48,100.693,148.48z M100.693,138.24c-0.942,0-1.707,0.765-1.707,1.707s0.765,1.707,1.707,1.707
	s1.707-0.765,1.707-1.707S101.635,138.24,100.693,138.24z"/>
<polygon style="fill:#DDDDDD;" points="129.707,182.613 71.68,182.613 88.545,155.307 112.841,155.307 "/>
<path d="M129.707,186.027H71.68c-1.239,0-2.379-0.671-2.982-1.749c-0.602-1.082-0.573-2.403,0.079-3.456l16.867-27.307
	c0.621-1.007,1.72-1.62,2.903-1.62h24.293c1.183,0,2.282,0.613,2.903,1.62l16.867,27.307c0.652,1.053,0.679,2.376,0.079,3.456
	C132.086,185.356,130.946,186.027,129.707,186.027z M77.8,179.2h45.786l-12.65-20.48H90.45L77.8,179.2z"/>
<path d="M153.6,186.027H51.2c-1.884,0-3.413-1.529-3.413-3.413c0-1.884,1.529-3.413,3.413-3.413h102.4
	c1.884,0,3.413,1.529,3.413,3.413C157.013,184.497,155.484,186.027,153.6,186.027z"/>
<path style="fill:#F97DA3;" d="M80.213,73.387L80.213,73.387c-2.828,0-5.12-2.292-5.12-5.12v-10.24c0-2.828,2.292-5.12,5.12-5.12
	l0,0c2.828,0,5.12,2.292,5.12,5.12v10.24C85.333,71.095,83.041,73.387,80.213,73.387z"/>
<path d="M80.213,76.8c-4.705,0-8.533-3.828-8.533-8.533v-10.24c0-4.705,3.828-8.533,8.533-8.533c4.705,0,8.533,3.828,8.533,8.533
	v10.24C88.747,72.972,84.919,76.8,80.213,76.8z M80.213,56.32c-0.942,0-1.707,0.765-1.707,1.707v10.24
	c0,0.942,0.765,1.707,1.707,1.707c0.942,0,1.707-0.765,1.707-1.707v-10.24C81.92,57.085,81.155,56.32,80.213,56.32z"/>
<path d="M92.16,59.733h-6.827c-1.884,0-3.413-1.529-3.413-3.413c0-1.884,1.529-3.413,3.413-3.413h6.827
	c1.884,0,3.413,1.529,3.413,3.413C95.573,58.204,94.044,59.733,92.16,59.733z"/>
<g>
</g>
<g>
</g>
<g>
</g>
<g>
</g>
<g>
</g>
<g>
</g>
<g>
</g>
<g>
</g>
<g>
</g>
<g>
</g>
<g>
</g>
<g>
</g>
<g>
</g>
<g>
</g>
<g>
</g>
</svg>
