<svg id="Layer_1" enable-background="new 0 0 480 480" height="512" viewBox="0 0 480 480" width="512" xmlns="http://www.w3.org/2000/svg"><path d="m378.461 25.396c-3.841-2.184-8.725-.837-10.907 3.005s-.837 8.725 3.005 10.907c20.01 11.366 32.441 32.707 32.441 55.692v147.175c-17.681-3.699-31-19.411-31-38.175 0-14.417 0-86.059 0-96.5 0-59.275-48.224-107.5-107.5-107.5h-49c-19.966 0-38.674 5.478-54.712 15h-19.788c-44.112 0-80 35.888-80 80v156c0 4.418 3.582 8 8 8 6.288 0 12.458-1.055 18.34-3.135 4.166-1.473 6.348-6.043 4.875-10.209s-6.043-6.351-10.209-4.875c-1.638.579-3.31 1.046-5.006 1.399v-147.18c0-34.965 28.188-63.453 63.031-63.976-19.762 19.505-32.031 46.583-32.031 76.476v192.5c0 6.096 6.569 9.957 11.896 6.987 13.925-7.765 25.564-19.876 32.458-35.559 10.567 15.063 24.91 27.289 41.646 35.291v2.11c0 8.913-3.476 17.287-9.788 23.581-11.192 11.161-25.298 9.761-23.641 9.761-45.637 0-82.571 36.93-82.571 82.571v47.258c0 4.418 3.582 8 8 8s8-3.582 8-8v-47.257c0-36.795 29.775-66.571 66.573-66.571 1.354 0 2.795-.062 4.368-.199 49.116 42.836 115.82 59.941 182.987 41.255 4.256-1.184 6.747-5.595 5.563-9.852-1.184-4.255-5.592-6.751-9.852-5.563-58.091 16.161-115.576 3.358-160.12-31.258 14.325-7.511 24.915-22.066 26.312-39.769 43.814 12.899 91.214-3.443 117.815-41.361 6.893 15.683 18.533 27.795 32.459 35.562 5.276 2.943 11.895-.848 11.895-6.987v-57.261c9.969 10.036 23.77 16.261 39 16.261 4.418 0 8-3.582 8-8v-156c0-28.729-15.534-55.4-40.539-69.604zm-22.461 258.943c-9.126-8.522-15.28-19.614-17.658-32.054 5.872-13.644 8.658-28.171 8.658-41.552 0-60.259.076-56.215-.18-57.412-.542-2.521-2.282-4.69-4.8-5.728-2.379-.954-15.532-3.861-28.704-15.572-10.44-9.282-16.029-19.791-18.88-26.973-2.526-6.367-11.38-6.795-14.53-.745-8.697 16.691-22.058 31.175-39.63 41.254-.446-7.567-2.579-14.86-6.302-21.479-2.924-5.2-10.261-5.437-13.575-.596-13.244 19.357-32.474 32.226-55.828 32.756-4.417.1-7.917 3.762-7.817 8.179.099 4.355 3.66 7.819 7.995 7.819 4.689 0 11.749-.81 18.254-2.491 15.247-3.94 29.463-12.76 41.114-25.325.508 4.217.221 8.439-.855 12.557-1.669 6.381 4.703 11.944 10.801 9.414 22.185-9.188 39.815-23.899 52.303-41.896 10.653 17.297 26.487 29.736 44.636 36.313v49.316c0 12.912-2.709 25.201-7.579 36.338-.54.783-.946 1.657-1.181 2.594-14.617 30.754-45.984 52.068-82.24 52.068s-67.622-21.314-82.24-52.068c-.235-.937-.641-1.811-1.181-2.594-9.067-20.729-7.581-35.765-7.581-59.462 0-4.418-3.582-8-8-8s-8 3.582-8 8c0 24.923-1.481 41.71 8.66 65.277-2.375 12.429-8.52 23.527-17.66 32.062v-176.839c0-50.453 41.047-91.5 91.5-91.5h49c50.453 0 91.5 41.047 91.5 91.5zm46 140.404v47.257c0 4.418-3.582 8-8 8s-8-3.582-8-8v-47.257c0-36.794-29.774-66.571-66.573-66.571-17.412 0-33.209-8.87-42.259-23.729-2.298-3.773-1.103-8.695 2.671-10.993 3.773-2.3 8.695-1.104 10.994 2.671 6.122 10.051 16.811 16.051 28.594 16.051 45.638-.002 82.573 36.93 82.573 82.571z"/></svg>